<svg height="800" width="800" xmlns="http://www.w3.org/2000/svg" viewBox="0 0 512 512"><path d="M411.826 311.652V512H100.174V311.652l111.304-44.522h89.043l111.305 44.522z" fill="#e8e8e8"/><path d="M373.881 296.474l-17.707 70.831V512H155.826V367.304l-17.707-70.83 73.36-29.344h89.043l73.359 29.344z" fill="#e8e8e8"/><path d="M217.043 422.957c0 6.147-4.983 11.13-11.13 11.13-6.147 0-11.13-4.983-11.13-11.13 0-6.147 4.983-11.13 11.13-11.13 6.147-.001 11.13 4.982 11.13 11.13zm-11.13 33.391c-6.147 0-11.13 4.983-11.13 11.13s4.983 11.13 11.13 11.13c6.147 0 11.13-4.983 11.13-11.13s-4.983-11.13-11.13-11.13zm100.174-22.261c6.147 0 11.13-4.983 11.13-11.13 0-6.147-4.983-11.13-11.13-11.13s-11.13 4.983-11.13 11.13c0 6.147 4.983 11.13 11.13 11.13zm0 22.261c-6.147 0-11.13 4.983-11.13 11.13s4.983 11.13 11.13 11.13 11.13-4.983 11.13-11.13-4.983-11.13-11.13-11.13z" fill="#5d5a51"/><path d="M289.391 278.261h-66.783v-44.522h66.783v44.522z" fill="#ecdec5"/><path d="M279.302 244.87h-46.603c-15.651 0-29.201-10.87-32.597-26.148l-4.378-19.7a506.997 506.997 0 01-12.072-109.979h144.696c0 36.99-4.048 73.869-12.072 109.979l-4.378 19.7c-3.396 15.278-16.946 26.148-32.596 26.148z" fill="#ecdec5"/><path d="M300.522 267.13c0 12.295-9.966 22.261-22.261 22.261v41.894A40.271 40.271 0 01256 367.304v-22.261a40.271 40.271 0 01-22.261-36.019v-19.633c-12.295 0-22.261-9.966-22.261-22.261h89.044z" fill="#932f30"/><path d="M300.522 267.13c0 12.295-9.966 22.261-22.261 22.261v41.894A40.271 40.271 0 01256 367.304V267.13h44.522z" fill="#932f30"/><path d="M178.087 128V5.565A5.566 5.566 0 01183.652 0h144.696a5.566 5.566 0 015.565 5.565V128a5.566 5.566 0 01-5.565 5.565H183.652a5.566 5.566 0 01-5.565-5.565z" fill="#e8e8e8"/><path d="M345.043 44.522H166.957c-12.295 0-22.261-9.966-22.261-22.261S154.662 0 166.957 0h178.087c12.295 0 22.261 9.966 22.261 22.261-.001 12.295-9.967 22.261-22.262 22.261z" fill="#e8e8e8"/></svg>