<svg width="800" height="800" viewBox="0 0 64 64" xmlns="http://www.w3.org/2000/svg"><g id="SVGRepo_iconCarrier"><style>.st3{fill:#330d00}</style><g id="_x31_9-Certificate"><path d="M51.1 19.1c-1.9-.7-3-2.4-3-4.3 0-.7.2-1.3.5-2 1.6-3.2-.9-6.5-4-6.5-.6 0-1.3.1-1.9.4-.6.3-1.3.4-1.9.4-1.9 0-3.6-1.1-4.3-3-.7-2-2.5-3.1-4.3-3.1-1.8 0-3.5 1-4.2 3-.7 1.9-2.4 3-4.3 3-.7 0-1.3-.2-2-.5-3.2-1.6-6.5.9-6.5 4 0 .6.1 1.3.4 1.9.3.6.4 1.3.4 1.9 0 1.9-1.1 3.6-3 4.3-2 .7-3.1 2.5-3.1 4.3 0 1.8 1 3.5 3 4.2 1.9.7 3 2.4 3 4.3 0 .7-.2 1.3-.5 2-1.6 3.2.9 6.5 4 6.5h.4c.5 0 1-.2 1.6-.4.6-.3 1.3-.4 1.9-.4 1.9 0 3.6 1.1 4.3 3 .4 1.3 1.3 2.1 2.3 2.6.6.3 1.3.5 2 .5.8 0 1.5-.2 2.2-.6.9-.5 1.6-1.3 2-2.4.7-1.9 2.4-3 4.3-3 .7 0 1.3.2 2 .5s1.3.5 2 .5c2.4 0 4.5-2.1 4.5-4.5 0-.6-.1-1.3-.4-1.9-.3-.6-.4-1.3-.4-1.9 0-1.9 1.1-3.6 3-4.3 4-1.4 4-7 0-8.5zM32 34.2c-6.1 0-11-4.9-11-11s4.9-11 11-11 11 4.9 11 11-4.9 11-11 11z" fill="#ffeea9"/><path d="M54 57.4l-5.9.8-3.8 4.6-10.2-18.1c.9-.5 1.6-1.3 2-2.4.7-1.9 2.4-3 4.3-3 .7 0 1.3.2 2 .5s1.3.5 2 .5L54 57.4zM29.9 44.8L19.7 62.9l-3.8-4.6-5.9-.9L19.8 40c.5 0 1-.2 1.6-.4.6-.3 1.3-.4 1.9-.4 1.9 0 3.6 1.1 4.3 3 .4 1.3 1.3 2.1 2.3 2.6z" fill="#8b1818"/><path class="st3" d="M44.1 23.2c0-6.7-5.4-12.1-12.1-12.1s-12.1 5.4-12.1 12.1S25.3 35.3 32 35.3s12.1-5.4 12.1-12.1zM32 33.1c-5.5 0-9.9-4.4-9.9-9.9s4.4-9.9 9.9-9.9 9.9 4.4 9.9 9.9-4.4 9.9-9.9 9.9z"/><path class="st3" d="M46 41.1c2.2-.7 3.9-2.8 3.9-5.3 0-.8-.2-1.6-.5-2.4-.2-.4-.3-.9-.3-1.5 0-1.5.9-2.8 2.3-3.3 2.3-.8 3.8-2.9 3.8-5.3s-1.4-4.5-3.7-5.3c-1.4-.5-2.3-1.8-2.3-3.2 0-.5.1-1 .4-1.5.9-1.8.8-3.8-.3-5.4-1.5-2.4-4.6-3.3-7.2-2.1-.4.2-.9.3-1.5.3-1.5 0-2.8-.9-3.3-2.3-.6-2.3-2.7-3.8-5.2-3.8-2.4 0-4.4 1.4-5.3 3.7-.7 1.9-2.9 2.8-4.7 1.9-1.8-.9-3.8-.8-5.4.3-1.7 1-2.7 2.9-2.7 4.8 0 .8.2 1.6.5 2.4.2.4.3.9.3 1.5 0 1.5-.9 2.8-2.3 3.3-2.3.8-3.8 2.9-3.8 5.3s1.4 4.4 3.7 5.3c1.4.5 2.3 1.8 2.3 3.2 0 .5-.1 1-.4 1.5-.9 1.8-.8 3.8.3 5.4.8 1.2 2 2.1 3.4 2.5L9 56.9c-.2.3-.2.7 0 1 .2.3.5.6.8.6l5.5.8 3.5 4.3c.2.3.5.4.9.4h.1c.4 0 .7-.2.9-.6l9.7-17.3c.5.1 1 .2 1.5.2.6 0 1.2-.1 1.7-.3l9.8 17.3c.2.3.5.5.9.6h.1c.3 0 .6-.1.9-.4l3.5-4.3 5.5-.8c.4 0 .7-.3.8-.6.2-.3.2-.7 0-1L46 41.1zM19.5 61l-2.7-3.4c-.2-.2-.4-.4-.7-.4l-4.3-.6L20.5 41h.2c.4-.1.8-.2 1.2-.4.4-.2.9-.3 1.4-.3 1.4 0 2.8.9 3.3 2.3.2.5.4.9.7 1.3.1.1.1.2.2.3.3.4.6.7.9 1L19.5 61zm10.8-17.2c-.8-.4-1.4-1.1-1.7-2-.8-2.3-2.9-3.8-5.3-3.8-.8 0-1.6.2-2.4.5-.4.2-.8.3-1.2.3h-.3c-1.2 0-2.3-.6-2.9-1.6-.6-1-.7-2.2-.1-3.3.4-.8.6-1.6.6-2.5 0-2.4-1.5-4.5-3.7-5.3-1.7-.6-2.3-2-2.3-3.2 0-1.2.6-2.7 2.3-3.3 2.3-.8 3.8-2.9 3.8-5.3 0-.8-.2-1.6-.5-2.4-.2-.5-.3-1-.3-1.5 0-1.2.6-2.3 1.6-2.9 1-.6 2.2-.7 3.3-.1.8.6 1.6.8 2.4.8 2.4 0 4.5-1.5 5.3-3.7.6-1.7 2-2.2 3.2-2.2 1.2 0 2.7.6 3.3 2.3.8 2.3 2.9 3.8 5.3 3.8.8 0 1.6-.2 2.4-.5 1.6-.7 3.5-.1 4.4 1.3.6 1 .7 2.2.1 3.3-.4.6-.6 1.5-.6 2.3 0 2.4 1.5 4.5 3.7 5.3 1.7.6 2.3 2.1 2.2 3.2 0 1.2-.6 2.6-2.3 3.2-2.3.8-3.8 2.9-3.8 5.3 0 .8.2 1.6.5 2.4.2.5.3 1 .3 1.5 0 2-1.9 3.7-4 3.3h-.1l-.9-.3c-.8-.4-1.6-.6-2.5-.6-2.4 0-4.5 1.5-5.3 3.7-.3.8-.8 1.4-1.5 1.8-.8.7-2 .7-3 .2zm17.6 13.4c-.3 0-.5.2-.7.4L44.5 61l-9-15.9.1-.1c.3-.2.5-.5.7-.8.1-.1.1-.2.2-.3.2-.3.4-.7.6-1.1.1-.2.1-.3.2-.5.8-1.5 2.8-2.3 4.5-1.5.5.2.9.4 1.4.5.1 0 .2.1.3.1l8.6 15.2-4.2.6z"/></g></g></svg>