<svg width="205mm" height="66mm" viewBox="0 0 205 66" xmlns="http://www.w3.org/2000/svg"><path d="M32.895 3.263c-16.566 0-29.999 13.432-29.999 30 0 16.568 13.433 30 30 30 16.568 0 30-13.431 30-30 0-16.568-13.432-30-30-30zm9.841 32.683l-.067-.002c.96 2.613 2.006 6.04 2.006 11.035H21.118c0-4.995 1.046-8.422 2.006-11.035l-.067.002a6.56 6.56 0 112.906-12.44 8.046 8.046 0 016.934-3.96c2.952 0 5.53 1.59 6.933 3.96a6.56 6.56 0 112.906 12.44z" fill="#af2c00"/><text style="-inkscape-font-specification:'Maiandra GD, Normal';font-variant-ligatures:normal;font-variant-caps:normal;font-variant-numeric:normal;font-variant-east-asian:normal" x="91.86" y="33.589" transform="scale(.72454 1.38018)" font-weight="400" font-size="25.015" font-family="Maiandra GD" fill="#2b0000" stroke-width=".293"><tspan style="-inkscape-font-specification:'Maiandra GD, Normal';font-variant-ligatures:normal;font-variant-caps:normal;font-variant-numeric:normal;font-variant-east-asian:normal" x="91.86" y="33.589">Cuisine Academy</tspan></text></svg>