<svg width="102mm" height="21mm" viewBox="0 0 102 21" xmlns="http://www.w3.org/2000/svg"><path d="M56 15.128a.593.593 0 010 .823.582.582 0 01-.388.16.536.536 0 01-.388-.174l-4.406-4.595-4.35 4.595a.536.536 0 01-.389.173.536.536 0 01-.388-.173.593.593 0 010-.824l4.35-4.595-.747-.766-.111.116a1.816 1.816 0 01-2.633 0l-1.856-1.893a.593.593 0 010-.824.536.536 0 01.79 0l1.842 1.907a.75.75 0 00.54.232.773.773 0 00.54-.232l.126-.13-2.397-2.456a.593.593 0 010-.824.536.536 0 01.79 0l2.369 2.471.138-.144a.837.837 0 000-1.128L47.59 4.954a.593.593 0 010-.823.536.536 0 01.79 0l1.83 1.907a2.004 2.004 0 010 2.76l-.14.145.735.766 4.89-5.174a.514.514 0 01.389-.173c.138 0 .29.058.388.173 1.233 1.286 1.025 3.093-.527 4.711l-1.87 1.951a.536.536 0 01-.79 0 .593.593 0 010-.824l1.87-1.95c1.123-1.171 1.095-2.052.86-2.587l-4.42 4.682zM4.378 10.216H40.5v.73H4.378zm56.554-.365h36.122v.73H60.932z" fill="#fff" fill-opacity=".738"/></svg>