<svg width="800" height="800" viewBox="0 0 512 512" baseProfile="tiny" overflow="visible" xmlns="http://www.w3.org/2000/svg"><path d="M383.352 232.639c-39.739 8.8-79.116-16.157-87.95-55.742L267.81 53.258c-2.208-9.896 4.055-19.702 13.99-21.902l107.931-23.9c9.935-2.2 19.779 4.039 21.987 13.935l27.592 123.64c8.834 39.585-16.219 78.808-55.958 87.608zm-254.704 73.125c39.739 8.8 79.116-16.157 87.95-55.742l27.592-123.64c2.209-9.896-4.055-19.702-13.99-21.902l-107.931-23.9c-9.935-2.2-19.779 4.039-21.987 13.935L72.69 218.155c-8.834 39.585 16.219 78.809 55.958 87.609z" fill="#f5f5f5"/><path d="M439.31 145.031l-27.592-123.64c-2.209-9.896-12.053-16.135-21.987-13.935l-7.288 1.614c4.683 2.412 8.3 6.794 9.534 12.322l27.592 123.64c8.834 39.585-16.219 78.809-55.959 87.609a75.002 75.002 0 01-6.238 1.087 73.824 73.824 0 0025.979-1.087c39.74-8.802 64.793-48.025 55.959-87.61zM230.2 104.48l-107.931-23.9a18.41 18.41 0 00-12.453 1.614l100.643 22.286c9.935 2.2 16.198 12.006 13.99 21.902l-27.592 123.64c-6.881 30.832-32.292 52.784-61.97 56.829 37.542 5.036 73.34-19.318 81.711-56.829l27.592-123.64c2.209-9.896-4.055-19.702-13.99-21.902z" fill="#f5f5f5"/><path d="M75.906 203.745l-3.216 14.41c-8.834 39.585 16.219 78.809 55.959 87.609 39.739 8.8 79.116-16.157 87.949-55.742l10.327-46.277c-8.959-3.398-23.753-8.03-42.398-8.991-20.513-1.057-31.822 3.043-61.571 6.261-10.645 1.152-26.847 2.537-47.05 2.73zm359.032-78.305c-10.558.253-27.233-.204-46.912-4.78-32.825-7.633-46.085-20.233-67.833-16.697-8.896 1.446-21.884 6.027-36.275 21.477l11.484 51.458c8.834 39.585 48.21 64.542 87.949 55.742 39.739-8.8 64.793-48.024 55.959-87.609l-4.372-19.591z" fill="#aa362c"/><path d="M74.919 203.745l-3.216 14.41c-8.834 39.585 16.219 78.809 55.959 87.609 39.739 8.8 79.116-16.157 87.949-55.742l10.327-46.277c-8.959-3.398-23.753-8.03-42.398-8.991-20.513-1.057-31.822 3.043-61.571 6.261-10.645 1.152-26.847 2.537-47.05 2.73zm359.032-78.305c-10.558.253-27.233-.204-46.912-4.78-32.825-7.633-46.085-20.233-67.833-16.697-8.896 1.446-21.884 6.027-36.275 21.477l11.484 51.458c8.834 39.585 48.21 64.542 87.949 55.742 39.739-8.8 64.793-48.024 55.959-87.609l-4.372-19.591z" fill="#aa362c"/><path d="M184.528 194.754c-5.936-.306-11.1-.178-16.165.233 16.961 1.325 30.443 5.58 38.821 8.758l-10.327 46.277c-6.881 30.832-32.292 52.784-61.97 56.829 37.543 5.036 73.34-19.318 81.711-56.829l10.327-46.277c-8.958-3.398-23.753-8.03-42.397-8.991zm254.782-49.723l-4.372-19.591c-10.558.253-27.233-.204-46.912-4.78-32.825-7.633-46.085-20.233-67.833-16.697a49.19 49.19 0 00-2.416.456c13.668 2.85 27.124 10.804 50.508 16.241 19.679 4.576 36.354 5.033 46.912 4.78l4.372 19.591c8.834 39.585-16.219 78.809-55.959 87.609a75.002 75.002 0 01-6.238 1.087 73.823 73.823 0 0025.979-1.087c39.74-8.801 64.793-48.024 55.959-87.609z" fill="#dc584c"/><path d="M369.02 245.344c-37.731 0-71.841-26.057-80.363-64.245L260.649 55.593c-1.519-6.808-.293-13.801 3.454-19.689 3.76-5.91 9.604-10 16.456-11.518L390.119.125c14.111-3.123 28.14 5.779 31.278 19.846l28.008 125.506c4.764 21.346.916 43.274-10.834 61.743-11.805 18.554-30.158 31.396-51.678 36.161a82.625 82.625 0 01-17.873 1.963zm26.786-230.813c-.805 0-1.621.087-2.438.268L283.808 39.06a11.112 11.112 0 00-7.025 4.911 10.986 10.986 0 00-1.466 8.348l28.008 125.506c6.963 31.198 34.85 52.486 65.694 52.489 4.827 0 9.721-.52 14.624-1.606 17.596-3.896 32.6-14.392 42.247-29.555 9.593-15.078 12.735-32.977 8.846-50.401L406.729 23.245c-1.156-5.18-5.792-8.714-10.923-8.714z"/><path d="M421.93 407.87a7.517 7.517 0 01-7.327-5.879l-36.669-164.309a7.515 7.515 0 015.697-8.971 7.513 7.513 0 018.971 5.697l36.669 164.309a7.514 7.514 0 01-7.341 9.153z"/><path d="M352.079 438.273a7.513 7.513 0 01-4.269-13.703c22-15.155 46.393-25.771 72.503-31.552 26.107-5.781 52.716-6.46 79.089-2.018a7.516 7.516 0 01-2.497 14.821c-24.458-4.12-49.133-3.491-73.343 1.871-24.21 5.361-46.829 15.204-67.227 29.255a7.486 7.486 0 01-4.256 1.326zm-209.11-118.701a82.632 82.632 0 01-17.873-1.963l1.625-7.337-1.625 7.337c-21.52-4.766-39.873-17.608-51.678-36.161-11.75-18.469-15.598-40.396-10.834-61.743L90.592 94.2c3.139-14.067 17.167-22.97 31.278-19.846l109.56 24.261c6.852 1.518 12.696 5.608 16.456 11.518 3.747 5.888 4.973 12.881 3.454 19.689l-28.008 125.506c-8.522 38.185-42.635 64.243-80.363 64.244zM116.183 88.76c-5.131 0-9.766 3.533-10.922 8.713L77.252 222.979c-3.888 17.425-.747 35.324 8.846 50.402 9.647 15.163 24.651 25.659 42.247 29.555 36.234 8.026 72.266-14.801 80.318-50.882l28.008-125.506c.644-2.885.123-5.85-1.466-8.347a11.112 11.112 0 00-7.025-4.911L118.62 89.029a11.19 11.19 0 00-2.437-.269z"/><path d="M90.059 482.098a7.515 7.515 0 01-7.341-9.153l36.669-164.31a7.511 7.511 0 018.971-5.697 7.515 7.515 0 015.697 8.971l-36.669 164.31a7.516 7.516 0 01-7.327 5.879z"/><path d="M159.911 512.501c-1.47 0-2.954-.43-4.256-1.327-20.398-14.051-43.017-23.894-67.227-29.255-24.212-5.363-48.888-5.992-73.342-1.871a7.516 7.516 0 01-2.497-14.821c26.371-4.443 52.981-3.764 79.089 2.018 26.11 5.782 50.503 16.397 72.503 31.552a7.514 7.514 0 01-4.27 13.704zM142.97 319.572a82.625 82.625 0 01-17.873-1.963c-21.521-4.766-39.873-17.608-51.678-36.161-11.751-18.469-15.599-40.396-10.835-61.744l3.264-14.627a7.516 7.516 0 017.262-5.878c15.876-.152 31.697-1.069 47.024-2.727 10.728-1.16 19.033-2.432 26.361-3.554 12.995-1.989 23.261-3.559 37.336-2.836 15.353.792 30.599 4.023 45.316 9.605a7.514 7.514 0 014.669 8.663l-10.483 46.975c-8.522 38.188-42.635 64.247-80.363 64.247zM79.225 214.136l-1.973 8.842c-3.888 17.425-.747 35.324 8.846 50.402 9.647 15.163 24.651 25.659 42.247 29.555 36.231 8.024 72.266-14.802 80.318-50.882l9.032-40.474c-11.337-3.707-22.96-5.886-34.639-6.488-12.543-.648-21.665.75-34.287 2.682-7.481 1.146-15.96 2.444-27.019 3.64-13.889 1.504-28.167 2.417-42.525 2.723zm289.795 31.208c-37.731.003-71.84-26.057-80.362-64.246L277 128.864a7.513 7.513 0 011.835-6.758c12.681-13.616 26.515-21.724 41.115-24.097 15.447-2.508 27.33 2.006 41.089 7.235 8.511 3.235 18.158 6.902 30.675 9.812 14.885 3.461 30.27 5.034 45.738 4.659a7.518 7.518 0 017.514 5.876l4.438 19.886c4.764 21.347.916 43.275-10.835 61.744-11.804 18.553-30.158 31.395-51.678 36.161a82.654 82.654 0 01-17.871 1.962zm-76.468-115.796l10.773 48.276c8.051 36.081 44.082 58.907 80.318 50.882 17.596-3.896 32.6-14.392 42.247-29.555 9.593-15.078 12.735-32.977 8.847-50.402l-3.115-13.958a197.485 197.485 0 01-43.311-5.098c-13.504-3.14-23.655-6.999-32.611-10.403-13.171-5.006-21.873-8.312-33.338-6.449-10.252 1.669-20.266 7.283-29.81 16.707z"/></svg>