<?xml version="1.0" encoding="UTF-8" standalone="no"?>
<!-- Created with Inkscape (http://www.inkscape.org/) -->

<svg
   width="102mm"
   height="21mm"
   viewBox="0 0 102 21"
   version="1.1"
   id="svg2630"
   xml:space="preserve"
   inkscape:version="1.2.2 (732a01da63, 2022-12-09)"
   sodipodi:docname="separador.svg"
   xmlns:inkscape="http://www.inkscape.org/namespaces/inkscape"
   xmlns:sodipodi="http://sodipodi.sourceforge.net/DTD/sodipodi-0.dtd"
   xmlns="http://www.w3.org/2000/svg"
   xmlns:svg="http://www.w3.org/2000/svg"><sodipodi:namedview
     id="namedview2632"
     pagecolor="#ffffff"
     bordercolor="#000000"
     borderopacity="0.25"
     inkscape:showpageshadow="2"
     inkscape:pageopacity="0.0"
     inkscape:pagecheckerboard="0"
     inkscape:deskcolor="#d1d1d1"
     inkscape:document-units="mm"
     showgrid="false"
     inkscape:zoom="0.72515432"
     inkscape:cx="397.84635"
     inkscape:cy="531.61098"
     inkscape:window-width="1920"
     inkscape:window-height="1001"
     inkscape:window-x="-9"
     inkscape:window-y="-9"
     inkscape:window-maximized="1"
     inkscape:current-layer="layer1" /><defs
     id="defs2627" /><g
     inkscape:label="Capa 1"
     inkscape:groupmode="layer"
     id="layer1"><g
       style="fill:#ff5555;fill-opacity:0.73818183"
       id="g3490"
       transform="matrix(0.13855226,0,0,0.14450775,44.52744,3.3936532)"><path
         id="XMLID_1393_"
         d="m 82.8,81.2 c 1.6,1.6 1.6,4.1 0,5.7 C 82,87.6 81,88 80,88 79,88 78,87.6 77.2,86.8 L 45.4,55 14,86.8 c -0.8,0.8 -1.8,1.2 -2.8,1.2 -1,0 -2,-0.4 -2.8,-1.2 -1.6,-1.6 -1.6,-4.1 0,-5.7 L 39.8,49.3 34.4,44 33.6,44.8 c -2.5,2.5 -5.9,3.9 -9.5,3.9 -3.6,0 -7,-1.4 -9.5,-3.9 L 1.2,31.7 c -1.6,-1.6 -1.6,-4.1 0,-5.7 1.6,-1.6 4.1,-1.6 5.7,0 l 13.3,13.2 c 1,1 2.4,1.6 3.9,1.6 1.5,0 2.8,-0.6 3.9,-1.6 l 0.9,-0.9 -17.3,-17 c -1.6,-1.6 -1.6,-4.1 0,-5.7 1.6,-1.6 4.1,-1.6 5.7,0 l 17.1,17.1 1,-1 c 2.1,-2.1 2.1,-5.6 0,-7.8 L 22.1,10.8 c -1.6,-1.6 -1.6,-4.1 0,-5.7 1.6,-1.6 4.1,-1.6 5.7,0 L 41,18.3 c 5.3,5.3 5.3,13.8 0,19.1 l -1,1 5.3,5.3 35.3,-35.8 c 0.7,-0.8 1.8,-1.2 2.8,-1.2 1,0 2.1,0.4 2.8,1.2 8.9,8.9 7.4,21.4 -3.8,32.6 L 68.9,54 c -1.6,1.6 -4.1,1.6 -5.7,0 -1.6,-1.6 -1.6,-4.1 0,-5.7 L 76.7,34.8 c 8.1,-8.1 7.9,-14.2 6.2,-17.9 L 51,49.3 Z"
         style="fill:#ff5555;fill-opacity:0.73818183" /></g><rect
       style="fill:#ff5555;stroke-width:0.577001;fill-opacity:0.73818183"
       id="rect4766"
       width="36.12162"
       height="0.72972971"
       x="4.3783779"
       y="10.216211" /><rect
       style="fill:#ff5555;stroke-width:0.577001;fill-opacity:0.73818183"
       id="rect4799"
       width="36.12162"
       height="0.72972971"
       x="60.93243"
       y="9.8513317" /></g></svg>
